<?xml version="1.0" encoding="UTF-8" standalone="no"?>
<svg
   xmlns:dc="http://purl.org/dc/elements/1.1/"
   xmlns:cc="http://creativecommons.org/ns#"
   xmlns:rdf="http://www.w3.org/1999/02/22-rdf-syntax-ns#"
   xmlns:svg="http://www.w3.org/2000/svg"
   xmlns="http://www.w3.org/2000/svg"
   xmlns:sodipodi="http://sodipodi.sourceforge.net/DTD/sodipodi-0.dtd"
   xmlns:inkscape="http://www.inkscape.org/namespaces/inkscape"
   width="256"
   height="256"
   viewBox="0 0 67.73333 67.733335"
   version="1.1"
   id="svg8"
   inkscape:version="1.0.1 (3bc2e813f5, 2020-09-07)"
   sodipodi:docname="XBar.svg"
   inkscape:export-filename="D:\Development\Projects\XBar\XBar.png"
   inkscape:export-xdpi="96"
   inkscape:export-ydpi="96">
  <defs
     id="defs2" />
  <sodipodi:namedview
     id="base"
     pagecolor="#6e6e6e"
     bordercolor="#575757"
     borderopacity="1"
     inkscape:pageopacity="0"
     inkscape:pageshadow="2"
     inkscape:zoom="1.4"
     inkscape:cx="270.72623"
     inkscape:cy="163.77896"
     inkscape:document-units="mm"
     inkscape:current-layer="layer2"
     inkscape:document-rotation="0"
     showgrid="false"
     inkscape:pagecheckerboard="false"
     borderlayer="false"
     inkscape:showpageshadow="true"
     showborder="true"
     units="px"
     inkscape:snap-bbox="true"
     inkscape:snap-nodes="true"
     inkscape:snap-global="false"
     inkscape:bbox-nodes="true"
     inkscape:window-width="1920"
     inkscape:window-height="1027"
     inkscape:window-x="-8"
     inkscape:window-y="22"
     inkscape:window-maximized="1"
     showguides="false"
     inkscape:guide-bbox="true"
     inkscape:snap-bbox-edge-midpoints="true"
     inkscape:snap-bbox-midpoints="true"
     inkscape:bbox-paths="true"
     inkscape:object-paths="true"
     inkscape:snap-intersection-paths="true"
     inkscape:snap-smooth-nodes="true"
     inkscape:snap-midpoints="true"
     inkscape:snap-object-midpoints="true"
     inkscape:snap-center="true"
     inkscape:snap-text-baseline="true"
     inkscape:snap-page="true">
    <sodipodi:guide
       position="-18.282906,33.731638"
       orientation="0,-1"
       id="guide842" />
    <sodipodi:guide
       position="34.043455,51.363074"
       orientation="1,0"
       id="guide844" />
    <sodipodi:guide
       position="67.733331,42.881399"
       orientation="0.70710678,-0.70710678"
       id="guide860" />
    <sodipodi:guide
       position="48.428197,31.022396"
       orientation="-0.70340599,-0.7107883"
       id="guide864" />
    <sodipodi:guide
       position="51.215771,17.179019"
       orientation="0.70710678,-0.70710678"
       id="guide866" />
  </sodipodi:namedview>
  <metadata
     id="metadata5">
    <rdf:RDF>
      <cc:Work
         rdf:about="">
        <dc:format>image/svg+xml</dc:format>
        <dc:type
           rdf:resource="http://purl.org/dc/dcmitype/StillImage" />
        <dc:title></dc:title>
      </cc:Work>
    </rdf:RDF>
  </metadata>
  <g
     inkscape:groupmode="layer"
     id="layer2"
     inkscape:label="Layer1">
    <g
       id="g862"
       transform="matrix(1.0117498,0,0,1.0117498,-1.9109276,8.8008452)"
       style="stroke:#000000;stroke-opacity:0.895582">
      <g
         id="g916"
         style="fill:#ffffff;fill-opacity:1;stroke:#000000;stroke-width:1;stroke-miterlimit:4;stroke-dasharray:none;stroke-opacity:0.895582" />
      <path
         id="path940"
         style="fill:#ffffff;fill-opacity:1;stroke:#000000;stroke-width:0.264583px;stroke-linecap:butt;stroke-linejoin:miter;stroke-opacity:0.895582"
         d="m 16.17024,11.916264 c 0,0 8.832748,-7.4879716 13.899344,9.448361 3.308927,11.060896 7.996749,10.895072 7.996749,10.895072 0,0 -9.067147,3.223768 -14.685939,-9.350818 C 17.718927,10.238788 16.17024,11.916264 16.17024,11.916264 Z M 3.6081385,43.564931 C 13.375113,36.451057 26.025566,21.310672 37.331249,12.236312 41.528333,8.8675772 36.979346,16.259529 45.324789,13.180319 19.605222,27.604937 24.179203,44.323983 3.6081385,43.564931 M 27.002588,40.199833 c 6.214084,-4.512058 18.596033,-2.071109 24.996566,-7.198588 3.059323,-2.45083 -12.585513,-5.90917 -8.951224,-6.906408 6.487592,-1.780175 33.179469,-30.1426705 -16.460009,-4.127529 50.864244,-49.916792 50.538045,0.201006 20.945738,4.820072 9.149763,0.501076 10.096184,5.139954 9.149763,9.411812 -4.365283,19.703562 -19.648488,3.738368 -29.680835,4.007343" />
    </g>
    <g
       id="g869"
       transform="matrix(1.0117498,0,0,1.0117498,-1.9109276,8.8008452)"
       style="stroke:none;stroke-opacity:0.895582">
      <g
         id="g865"
         style="fill:#ffffff;fill-opacity:1;stroke:none;stroke-width:1;stroke-miterlimit:4;stroke-dasharray:none;stroke-opacity:0.895582" />
      <path
         id="path867"
         style="fill:#ffffff;fill-opacity:1;stroke:none;stroke-width:0.264583px;stroke-linecap:butt;stroke-linejoin:miter;stroke-opacity:0.895582"
         d="m 16.17024,11.916264 c 0,0 8.832748,-7.4879716 13.899344,9.448361 3.308927,11.060896 7.996749,10.895072 7.996749,10.895072 0,0 -9.067147,3.223768 -14.685939,-9.350818 C 17.718927,10.238788 16.17024,11.916264 16.17024,11.916264 Z M 3.6081385,43.564931 C 13.375113,36.451057 26.025566,21.310672 37.331249,12.236312 41.528333,8.8675772 36.979346,16.259529 45.324789,13.180319 19.605222,27.604937 24.179203,44.323983 3.6081385,43.564931 M 27.002588,40.199833 c 6.214084,-4.512058 18.596033,-2.071109 24.996566,-7.198588 3.059323,-2.45083 -12.585513,-5.90917 -8.951224,-6.906408 6.487592,-1.780175 33.179469,-30.1426705 -16.460009,-4.127529 50.864244,-49.916792 50.538045,0.201006 20.945738,4.820072 9.149763,0.501076 10.096184,5.139954 9.149763,9.411812 -4.365283,19.703562 -19.648488,3.738368 -29.680835,4.007343" />
    </g>
  </g>
</svg>
